<svg width="158" height="43" viewBox="0 0 158 43" fill="none" xmlns="http://www.w3.org/2000/svg">
<g clip-path="url(#clip0_2_38)">
<path d="M14.2342 5.36014C14.4204 5.36014 14.6099 5.36344 14.7961 5.37333C14.3387 5.71954 13.9336 6.04926 13.5841 6.3493C10.7026 8.81892 7.62512 12.6338 7.62512 15.9442C7.62512 17.5203 8.32425 18.4798 8.90904 19.0073C9.71271 19.7327 10.7908 20.0987 12.1139 20.0987C17.2594 20.0987 23.79 14.3945 23.79 7.98143C23.79 7.28571 23.6757 6.56692 23.4274 5.86132C24.5578 5.54149 25.7339 5.36014 26.9263 5.36014C29.3929 5.36014 30.8695 6.55703 30.8695 8.47931C30.8695 11.7468 26.959 15.6277 25.6326 16.6399L28.7101 20.257C29.4157 19.7525 35.3257 14.6517 35.3257 8.47931C35.3257 6.34931 34.4861 4.41714 32.9571 3.03561C31.4282 1.65078 29.3406 0.915497 26.9263 0.915497C24.512 0.915497 22.2415 1.45954 20.2748 2.24427C18.8079 1.42986 16.8282 0.915497 14.2342 0.915497C6.78551 0.915497 1.83607 5.96353 1.63025 6.17785L4.7796 9.6663C4.92335 9.51793 8.68688 5.36014 14.2342 5.36014ZM19.3568 7.63851C19.3764 7.74732 19.3862 7.86273 19.3862 7.98143C19.3862 11.8359 15.3286 15.0803 12.7641 15.5881C12.653 15.6112 12.4504 15.5881 12.3263 15.4595C12.2087 15.3375 12.2413 15.0671 12.2903 14.9451C12.5876 14.2231 13.1724 13.1976 14.1917 11.9875C15.443 10.5038 17.2398 8.89805 19.3568 7.64181V7.63851Z" fill="#1D1D1B"/>
<path d="M67.7894 3.03561C66.2605 1.65078 64.1729 0.915497 61.7586 0.915497C59.3443 0.915497 57.0738 1.45954 55.1071 2.24427C53.6435 1.42986 51.6637 0.915497 49.0665 0.915497C41.6178 0.915497 36.6683 5.96353 36.4625 6.17785L39.6119 9.6663C39.7556 9.51793 43.5192 5.36014 49.0665 5.36014C49.2527 5.36014 49.4422 5.36344 49.6284 5.37333C49.171 5.71954 48.7659 6.04926 48.4163 6.3493C45.5349 8.81892 42.4574 12.6338 42.4574 15.9442C42.4574 17.5203 43.1565 18.4798 43.7413 19.0073C44.545 19.7327 45.6231 20.0987 46.9462 20.0987C52.0917 20.0987 58.6223 14.3945 58.6223 7.98143C58.6223 7.28571 58.508 6.56692 58.2597 5.86132C59.3901 5.54149 60.5662 5.36014 61.7586 5.36014C64.2252 5.36014 65.7018 6.55703 65.7018 8.47931C65.7018 11.7468 61.7913 15.6277 60.4649 16.6399L63.5424 20.257C64.248 19.7525 70.158 14.6517 70.158 8.47931C70.158 6.34931 69.3183 4.41714 67.7894 3.03561ZM47.5963 15.5848C47.4853 15.6079 47.2827 15.5848 47.1586 15.4562C47.0409 15.3342 47.0736 15.0638 47.1226 14.9418C47.4199 14.2198 48.0047 13.1943 49.024 11.9842C50.2752 10.5005 52.0721 8.89475 54.1891 7.63851C54.2087 7.74732 54.2185 7.86273 54.2185 7.98143C54.2185 11.8359 50.1609 15.0803 47.5963 15.5881V15.5848Z" fill="#1D1D1B"/>
<path d="M0 25.2621H17.7527V27.7911H4.26992V41.2635H36.0215V27.7911H22.5388V25.2621H38.7723V21.012H0V25.2621ZM31.8071 37.0134H8.48103V32.0412H31.8104V37.0134H31.8071Z" fill="#1D1D1B"/>
<path d="M75.6498 0.915497H71.4387V20.0987H75.6498V0.915497Z" fill="#1D1D1B"/>
<path d="M153.789 0.915497V21.4209H139.231V17.0026H136.454C139.042 14.7374 140.969 11.4633 140.969 7.98143C140.969 7.28571 140.855 6.56692 140.607 5.86132C141.737 5.54149 142.913 5.36014 144.106 5.36014C146.572 5.36014 148.049 6.55703 148.049 8.47931C148.049 11.7468 144.138 15.6277 142.812 16.6399L145.889 20.257C146.595 19.7525 152.505 14.6517 152.505 8.47931C152.505 6.34931 151.665 4.41714 150.136 3.03561C148.608 1.65078 146.52 0.915497 144.106 0.915497C141.691 0.915497 139.421 1.45954 137.454 2.24427C135.991 1.42986 134.011 0.915497 131.413 0.915497C123.965 0.915497 119.015 5.96353 118.81 6.17785L121.959 9.6663C122.103 9.51793 125.866 5.36014 131.413 5.36014C131.6 5.36014 131.789 5.36344 131.975 5.37333C131.518 5.71954 131.113 6.04926 130.763 6.34931C127.882 8.81892 124.804 12.6338 124.804 15.9442C124.804 17.5203 125.504 18.4798 126.088 19.0073C126.892 19.7327 127.97 20.0987 129.293 20.0987C130.956 20.0987 132.759 19.5019 134.445 18.4798V21.4242H119.914V25.6743H153.786V30.0464H157.997V0.915497H153.786H153.789ZM129.943 15.5848C129.832 15.6079 129.63 15.5848 129.506 15.4562C129.388 15.3342 129.421 15.0638 129.47 14.9418C129.767 14.2198 130.352 13.1943 131.371 11.9842C132.622 10.5005 134.419 8.89475 136.536 7.63852C136.556 7.74732 136.565 7.86273 136.565 7.98143C136.565 11.8359 132.508 15.0803 129.943 15.5881V15.5848Z" fill="#1D1D1B"/>
<path d="M100.825 16.6399L103.902 20.257C104.608 19.7525 110.518 14.6517 110.518 8.47931C110.518 6.34931 109.678 4.41714 108.149 3.03561C106.62 1.65078 104.533 0.915497 102.119 0.915497C99.7043 0.915497 97.4338 1.45954 95.4671 2.24427C94.0035 1.42986 92.0237 0.915497 89.4264 0.915497C81.9778 0.915497 77.0283 5.96353 76.8225 6.17785L79.9719 9.6663C80.1156 9.51793 83.8791 5.36014 89.4264 5.36014C89.6127 5.36014 89.8021 5.36344 89.9884 5.37333C89.531 5.71954 89.1259 6.04926 88.7763 6.3493C85.8949 8.81892 82.8174 12.6338 82.8174 15.9442C82.8174 17.5203 83.5165 18.4798 84.1013 19.0073C84.905 19.7327 85.9831 20.0987 87.3062 20.0987C92.4516 20.0987 98.9823 14.3945 98.9823 7.98143C98.9823 7.28571 98.868 6.56692 98.6197 5.86132C99.75 5.54149 100.926 5.36014 102.119 5.36014C104.585 5.36014 106.062 6.55703 106.062 8.47931C106.062 11.7468 102.151 15.6277 100.825 16.6399ZM87.9563 15.5848C87.8452 15.6079 87.6427 15.5848 87.5185 15.4562C87.4009 15.3342 87.4336 15.0638 87.4826 14.9418C87.7799 14.2198 88.3647 13.1943 89.384 11.9842C90.6352 10.5005 92.432 8.89475 94.549 7.63851C94.5686 7.74732 94.5784 7.86273 94.5784 7.98143C94.5784 11.8359 90.5209 15.0803 87.9563 15.5881V15.5848Z" fill="#1D1D1B"/>
<path d="M116.01 26.1425V12.9207H119.11V8.09023H116.01V0.915497H111.799V24.3026C111.381 24.24 110.953 24.207 110.518 24.207C105.634 24.207 101.661 28.2164 101.661 33.1458C101.661 38.0751 105.634 42.0845 110.518 42.0845C115.402 42.0845 119.375 38.0751 119.375 33.1458C119.375 30.3102 118.058 27.7812 116.01 26.1425ZM110.518 37.4486C108.169 37.4486 106.255 35.5198 106.255 33.1458C106.255 30.7718 108.166 28.8429 110.518 28.8429C112.87 28.8429 114.781 30.7718 114.781 33.1458C114.781 35.5198 112.87 37.4486 110.518 37.4486Z" fill="#1D1D1B"/>
</g>
<defs>
<clipPath id="clip0_2_38">
<rect width="158" height="41.169" fill="white" transform="translate(0 0.915497)"/>
</clipPath>
</defs>
</svg>
