<svg width="118" height="67" viewBox="0 0 118 67" fill="none" xmlns="http://www.w3.org/2000/svg">
<g clip-path="url(#clip0_2_22)">
<path d="M84.054 54.4707L94.8308 67C97.3001 65.256 118 47.5799 118 26.1994C118 18.8235 115.058 12.1294 109.706 7.33663C104.347 2.53733 97.044 0 88.5854 0C80.1268 0 72.1804 1.88825 65.2914 4.60916C60.1624 1.7899 53.2274 0 44.1384 0C18.0533 0 0.722395 17.486 0 18.2268L11.0329 30.3103C11.5321 29.7923 24.7191 15.3945 44.1384 15.3945C44.7951 15.3945 45.4518 15.4076 46.1085 15.4338C44.5127 16.6271 43.0876 17.7744 41.8595 18.8169C31.7723 27.3665 20.9889 40.5908 20.9889 52.0579C20.9889 57.5194 23.4319 60.8435 25.4809 62.6728C28.2916 65.1839 32.0678 66.4558 36.7043 66.4558C54.7247 66.4558 77.5918 46.6882 77.5918 24.4751C77.5918 22.0689 77.1912 19.5709 76.3244 17.1319C80.2844 16.0304 84.4021 15.3945 88.5788 15.3945C97.2082 15.3945 102.383 19.5381 102.383 26.206C102.383 37.5224 88.6905 50.9696 84.0409 54.4772L84.054 54.4707ZM38.9831 50.8188C38.5891 50.8974 37.8864 50.8188 37.4464 50.3664C37.026 49.9402 37.1443 49.0092 37.3216 48.5896C38.3658 46.085 40.4082 42.5315 43.9807 38.3419C48.3611 33.2017 54.6525 27.6418 62.0735 23.2884C62.1391 23.6687 62.1785 24.062 62.1785 24.4751C62.1785 37.8305 47.9736 49.0682 38.9831 50.8253V50.8188Z" fill="#1D1D1B"/>
</g>
<defs>
<clipPath id="clip0_2_22">
<rect width="118" height="67" fill="white"/>
</clipPath>
</defs>
</svg>
